<?xml version="1.0" encoding="UTF-8" ?>
<svg width="555" height="195" xmlns="http://www.w3.org/2000/svg">
<rect x="0" y="0" width="555" height="195" style="fill:#101010" />
<rect x="45" y="45" width="45" height="45" style="fill:#101010" />
<rect x="105" y="45" width="45" height="45" style="fill:#252525" />
<rect x="165" y="45" width="45" height="45" style="fill:#464646" />
<rect x="225" y="45" width="45" height="45" style="fill:#525252" />
<rect x="285" y="45" width="45" height="45" style="fill:#ababab" />
<rect x="345" y="45" width="45" height="45" style="fill:#b9b9b9" />
<rect x="405" y="45" width="45" height="45" style="fill:#e3e3e3" />
<rect x="465" y="45" width="45" height="45" style="fill:#f7f7f7" />
<rect x="45" y="105" width="45" height="45" style="fill:#7c7c7c" />
<rect x="105" y="105" width="45" height="45" style="fill:#999999" />
<rect x="165" y="105" width="45" height="45" style="fill:#a0a0a0" />
<rect x="225" y="105" width="45" height="45" style="fill:#8e8e8e" />
<rect x="285" y="105" width="45" height="45" style="fill:#868686" />
<rect x="345" y="105" width="45" height="45" style="fill:#686868" />
<rect x="405" y="105" width="45" height="45" style="fill:#747474" />
<rect x="465" y="105" width="45" height="45" style="fill:#5e5e5e" />
</svg>
