<?xml version="1.0" encoding="UTF-8" ?>
<svg width="555" height="195" xmlns="http://www.w3.org/2000/svg">
<rect x="0" y="0" width="555" height="195" style="fill:#151515" />
<rect x="45" y="45" width="45" height="45" style="fill:#151515" />
<rect x="105" y="45" width="45" height="45" style="fill:#202020" />
<rect x="165" y="45" width="45" height="45" style="fill:#303030" />
<rect x="225" y="45" width="45" height="45" style="fill:#505050" />
<rect x="285" y="45" width="45" height="45" style="fill:#b0b0b0" />
<rect x="345" y="45" width="45" height="45" style="fill:#d0d0d0" />
<rect x="405" y="45" width="45" height="45" style="fill:#e0e0e0" />
<rect x="465" y="45" width="45" height="45" style="fill:#f5f5f5" />
<rect x="45" y="105" width="45" height="45" style="fill:#FFDAB9" />
<rect x="105" y="105" width="45" height="45" style="fill:#ffeb99" />
<rect x="165" y="105" width="45" height="45" style="fill:#ebbbff" />
<rect x="225" y="105" width="45" height="45" style="fill:#d1f1a9" />
<rect x="285" y="105" width="45" height="45" style="fill:#c0e9ff" />
<rect x="345" y="105" width="45" height="45" style="fill:#bbdaff" />
<rect x="405" y="105" width="45" height="45" style="fill:#ff9da4" />
<rect x="465" y="105" width="45" height="45" style="fill:#888888" />
</svg>
